<svg width="16" height="15" viewBox="0 0 16 15" fill="none" xmlns="http://www.w3.org/2000/svg">
<path d="M9.19719 13.9953L8.40442 14.7578C8.06874 15.0807 7.52595 15.0807 7.19384 14.7578L0.251758 8.08393C-0.0839192 7.76105 -0.0839192 7.23895 0.251758 6.91951L7.19384 0.242157C7.52952 -0.080719 8.07231 -0.080719 8.40442 0.242157L9.19719 1.00469C9.53644 1.33101 9.52929 1.86341 9.1829 2.18285L4.87981 6.12606H15.143C15.6179 6.12606 16 6.49359 16 6.95042V8.04958C16 8.50641 15.6179 8.87394 15.143 8.87394H4.87981L9.1829 12.8172C9.53286 13.1366 9.54001 13.669 9.19719 13.9953Z" fill="#1890E7"/>
</svg>
