<svg width="18" height="18" viewBox="0 0 18 18" fill="none" xmlns="http://www.w3.org/2000/svg">
<path d="M14.2788 0.944785L9.27856 5.94504L4.50559 1.17207C3.9199 0.586386 2.94733 0.609004 2.33376 1.22258L1.22259 2.33374C0.609018 2.94732 0.586399 3.91989 1.17208 4.50557L5.94505 9.27854L0.944799 14.2788C0.331226 14.8924 0.308608 15.8649 0.894291 16.4506L1.95495 17.5113C2.54063 18.097 3.51321 18.0744 4.12678 17.4608L9.12703 12.4605L13.9 17.2335C14.4857 17.8192 15.4583 17.7966 16.0718 17.183L17.183 16.0718C17.7966 15.4582 17.8192 14.4857 17.2335 13.9L12.4605 9.12702L17.4608 4.12677C18.0744 3.51319 18.097 2.54062 17.5113 1.95494L16.4506 0.894278C15.865 0.308594 14.8924 0.331212 14.2788 0.944785Z" fill="white"/>
</svg>
