<svg width="46" height="45" viewBox="0 0 46 45" fill="none" xmlns="http://www.w3.org/2000/svg">
<path d="M23.6391 40.7812H19.1669V29.7756L32.6426 14.9458C33.882 13.5817 33.0043 11.25 31.2514 11.25H1.9714C0.218467 11.25 -0.659198 13.5817 0.580234 14.9458L14.0559 29.7756V40.7812H9.58369C7.81957 40.7812 6.38927 42.3554 6.38927 44.2969C6.38927 44.6854 6.67517 45 7.02816 45H26.1946C26.5476 45 26.8335 44.6854 26.8335 44.2969C26.8335 42.3554 25.4032 40.7812 23.6391 40.7812ZM34.5001 0C29.5001 0 25.2882 3.5332 23.7046 8.4375H27.9005C29.2301 5.92822 31.6755 4.21875 34.5001 4.21875C38.7271 4.21875 42.1667 8.00332 42.1667 12.6562C42.1667 17.3092 38.7271 21.0938 34.5001 21.0938C33.3789 21.0938 32.3207 20.8125 31.36 20.3344L28.5441 23.4334C30.2859 24.6023 32.3111 25.3125 34.5001 25.3125C40.8514 25.3125 46 19.6462 46 12.6562C46 5.66631 40.8514 0 34.5001 0Z" fill="#1890E7"/>
<defs>
<linearGradient id="paint0_linear" x1="0" y1="45" x2="46" y2="45" gradientUnits="userSpaceOnUse">
<stop stop-color="#178EE4"/>
<stop offset="1" stop-color="#0A6CB3"/>
</linearGradient>
</defs>
</svg>
