<svg width="205" height="44" viewBox="0 0 205 44" fill="none" xmlns="http://www.w3.org/2000/svg">
<path d="M9.99229 9.352C14.9843 9.352 18.8083 10.248 21.4643 12.04C24.1203 13.8 25.4483 16.552 25.4483 20.296C25.4483 22.632 24.9043 24.536 23.8163 26.008C22.7603 27.448 21.2243 28.584 19.2083 29.416C19.8803 30.248 20.5843 31.208 21.3203 32.296C22.0563 33.352 22.7763 34.472 23.4803 35.656C24.2163 36.808 24.9203 38.024 25.5923 39.304C26.2643 40.552 26.8883 41.784 27.4643 43H19.0643C18.4563 41.912 17.8323 40.808 17.1923 39.688C16.5843 38.568 15.9443 37.48 15.2723 36.424C14.6323 35.368 13.9923 34.376 13.3523 33.448C12.7123 32.488 12.0723 31.624 11.4323 30.856H7.73629V43H0.248291V10.216C1.88029 9.896 3.56029 9.672 5.28829 9.544C7.04829 9.416 8.61629 9.352 9.99229 9.352ZM10.4243 15.736C9.88029 15.736 9.38429 15.752 8.93629 15.784C8.52029 15.816 8.12029 15.848 7.73629 15.88V24.904H9.84829C12.6643 24.904 14.6803 24.552 15.8963 23.848C17.1123 23.144 17.7203 21.944 17.7203 20.248C17.7203 18.616 17.0963 17.464 15.8483 16.792C14.6323 16.088 12.8243 15.736 10.4243 15.736Z" fill="#232323"/>
<path d="M31.3039 43V18.052H48.1519V22.768H36.9199V27.664H46.8919V32.272H36.9199V38.284H48.9799V43H31.3039Z" fill="#232323"/>
<path d="M60.6239 17.764C64.3439 17.764 67.1999 18.424 69.1919 19.744C71.1839 21.04 72.1799 23.176 72.1799 26.152C72.1799 29.152 71.1719 31.324 69.1559 32.668C67.1399 33.988 64.2599 34.648 60.5159 34.648H58.7519V43H53.1359V18.412C54.3599 18.172 55.6559 18.004 57.0239 17.908C58.3919 17.812 59.5919 17.764 60.6239 17.764ZM60.9839 22.552C60.5759 22.552 60.1679 22.564 59.7599 22.588C59.3759 22.612 59.0399 22.636 58.7519 22.66V29.86H60.5159C62.4599 29.86 63.9239 29.596 64.9079 29.068C65.8919 28.54 66.3839 27.556 66.3839 26.116C66.3839 25.42 66.2519 24.844 65.9879 24.388C65.7479 23.932 65.3879 23.572 64.9079 23.308C64.4519 23.02 63.8879 22.828 63.2159 22.732C62.5439 22.612 61.7999 22.552 60.9839 22.552Z" fill="#232323"/>
<path d="M81.0199 30.508C81.0199 31.732 81.1639 32.836 81.4519 33.82C81.7639 34.804 82.1959 35.656 82.7479 36.376C83.3239 37.072 84.0199 37.612 84.8359 37.996C85.6519 38.38 86.5879 38.572 87.6439 38.572C88.6759 38.572 89.5999 38.38 90.4159 37.996C91.2559 37.612 91.9519 37.072 92.5039 36.376C93.0799 35.656 93.5119 34.804 93.7999 33.82C94.1119 32.836 94.2679 31.732 94.2679 30.508C94.2679 29.284 94.1119 28.18 93.7999 27.196C93.5119 26.188 93.0799 25.336 92.5039 24.64C91.9519 23.92 91.2559 23.368 90.4159 22.984C89.5999 22.6 88.6759 22.408 87.6439 22.408C86.5879 22.408 85.6519 22.612 84.8359 23.02C84.0199 23.404 83.3239 23.956 82.7479 24.676C82.1959 25.372 81.7639 26.224 81.4519 27.232C81.1639 28.216 81.0199 29.308 81.0199 30.508ZM100.064 30.508C100.064 32.644 99.7399 34.528 99.0919 36.16C98.4679 37.768 97.6039 39.124 96.4999 40.228C95.3959 41.308 94.0759 42.124 92.5399 42.676C91.0279 43.228 89.3959 43.504 87.6439 43.504C85.9399 43.504 84.3319 43.228 82.8199 42.676C81.3079 42.124 79.9879 41.308 78.8599 40.228C77.7319 39.124 76.8439 37.768 76.1959 36.16C75.5479 34.528 75.2239 32.644 75.2239 30.508C75.2239 28.372 75.5599 26.5 76.2319 24.892C76.9039 23.26 77.8039 21.892 78.9319 20.788C80.0839 19.684 81.4039 18.856 82.8919 18.304C84.4039 17.752 85.9879 17.476 87.6439 17.476C89.3479 17.476 90.9559 17.752 92.4679 18.304C93.9799 18.856 95.2999 19.684 96.4279 20.788C97.5559 21.892 98.4439 23.26 99.0919 24.892C99.7399 26.5 100.064 28.372 100.064 30.508Z" fill="#232323"/>
<path d="M112.053 17.764C115.797 17.764 118.665 18.436 120.657 19.78C122.649 21.1 123.645 23.164 123.645 25.972C123.645 27.724 123.237 29.152 122.421 30.256C121.629 31.336 120.477 32.188 118.965 32.812C119.469 33.436 119.997 34.156 120.549 34.972C121.101 35.764 121.641 36.604 122.169 37.492C122.721 38.356 123.249 39.268 123.753 40.228C124.257 41.164 124.725 42.088 125.157 43H118.857C118.401 42.184 117.933 41.356 117.453 40.516C116.997 39.676 116.517 38.86 116.013 38.068C115.533 37.276 115.053 36.532 114.573 35.836C114.093 35.116 113.613 34.468 113.133 33.892H110.361V43H104.745V18.412C105.969 18.172 107.229 18.004 108.525 17.908C109.845 17.812 111.021 17.764 112.053 17.764ZM112.377 22.552C111.969 22.552 111.597 22.564 111.261 22.588C110.949 22.612 110.649 22.636 110.361 22.66V29.428H111.945C114.057 29.428 115.569 29.164 116.481 28.636C117.393 28.108 117.849 27.208 117.849 25.936C117.849 24.712 117.381 23.848 116.445 23.344C115.533 22.816 114.177 22.552 112.377 22.552Z" fill="#232323"/>
<path d="M146.909 18.052V22.84H139.385V43H133.769V22.84H126.245V18.052H146.909Z" fill="#178DE2"/>
<path d="M157.323 38.716C158.115 38.716 158.763 38.656 159.267 38.536C159.795 38.392 160.215 38.212 160.527 37.996C160.839 37.756 161.055 37.48 161.175 37.168C161.295 36.856 161.355 36.508 161.355 36.124C161.355 35.308 160.971 34.636 160.203 34.108C159.435 33.556 158.115 32.968 156.243 32.344C155.427 32.056 154.611 31.732 153.795 31.372C152.979 30.988 152.247 30.52 151.599 29.968C150.951 29.392 150.423 28.708 150.015 27.916C149.607 27.1 149.403 26.116 149.403 24.964C149.403 23.812 149.619 22.78 150.051 21.868C150.483 20.932 151.095 20.14 151.887 19.492C152.679 18.844 153.639 18.352 154.767 18.016C155.895 17.656 157.167 17.476 158.583 17.476C160.263 17.476 161.715 17.656 162.939 18.016C164.163 18.376 165.171 18.772 165.963 19.204L164.343 23.632C163.647 23.272 162.867 22.96 162.003 22.696C161.163 22.408 160.143 22.264 158.943 22.264C157.599 22.264 156.627 22.456 156.027 22.84C155.451 23.2 155.163 23.764 155.163 24.532C155.163 24.988 155.271 25.372 155.487 25.684C155.703 25.996 156.003 26.284 156.387 26.548C156.795 26.788 157.251 27.016 157.755 27.232C158.283 27.424 158.859 27.628 159.483 27.844C160.779 28.324 161.907 28.804 162.867 29.284C163.827 29.74 164.619 30.28 165.243 30.904C165.891 31.528 166.371 32.26 166.683 33.1C166.995 33.94 167.151 34.96 167.151 36.16C167.151 38.488 166.335 40.3 164.703 41.596C163.071 42.868 160.611 43.504 157.323 43.504C156.219 43.504 155.223 43.432 154.335 43.288C153.447 43.168 152.655 43.012 151.959 42.82C151.287 42.628 150.699 42.424 150.195 42.208C149.715 41.992 149.307 41.788 148.971 41.596L150.555 37.132C151.299 37.54 152.211 37.912 153.291 38.248C154.395 38.56 155.739 38.716 157.323 38.716Z" fill="#232323"/>
<path d="M199.007 9.35219L198.623 10.0528C198.482 10.3125 198.182 10.4202 197.915 10.3174C197.362 10.1018 196.855 9.79313 196.41 9.40608C196.194 9.21991 196.138 8.89165 196.279 8.63689L196.663 7.93629C196.34 7.54434 196.087 7.0887 195.918 6.59387H195.144C194.863 6.59387 194.619 6.3832 194.572 6.08924C194.479 5.50133 194.474 4.88401 194.572 4.2716C194.619 3.97764 194.863 3.76207 195.144 3.76207H195.918C196.087 3.26724 196.34 2.8116 196.663 2.41966L196.279 1.71905C196.138 1.46429 196.19 1.13603 196.41 0.949861C196.855 0.562815 197.366 0.254158 197.915 0.0385879C198.182 -0.0642978 198.482 0.0434872 198.623 0.303151L199.007 1.00375C199.499 0.910666 200.001 0.910666 200.493 1.00375L200.878 0.303151C201.018 0.0434872 201.318 -0.0642978 201.586 0.0385879C202.139 0.254158 202.645 0.562815 203.09 0.949861C203.306 1.13603 203.362 1.46429 203.222 1.71905L202.837 2.41966C203.161 2.8116 203.414 3.26724 203.583 3.76207H204.356C204.637 3.76207 204.881 3.97274 204.928 4.2667C205.022 4.85462 205.026 5.47193 204.928 6.08434C204.881 6.3783 204.637 6.59387 204.356 6.59387H203.583C203.414 7.0887 203.161 7.54434 202.837 7.93629L203.222 8.63689C203.362 8.89165 203.311 9.21991 203.09 9.40608C202.645 9.79313 202.134 10.1018 201.586 10.3174C201.318 10.4202 201.018 10.3125 200.878 10.0528L200.493 9.35219C200.006 9.44528 199.499 9.44528 199.007 9.35219ZM198.515 6.47139C200.32 7.92159 202.378 5.77079 200.99 3.88455C199.185 2.42945 197.127 4.58515 198.515 6.47139ZM193.11 14.0114L194.69 14.8345C195.163 15.1187 195.369 15.7213 195.182 16.2602C194.765 17.4459 193.944 18.5335 193.185 19.484C192.838 19.92 192.238 20.0278 191.764 19.7436L190.4 18.9206C189.65 19.5918 188.778 20.1258 187.827 20.4736V22.1198C187.827 22.6881 187.437 23.1781 186.903 23.276C185.75 23.4818 184.54 23.4916 183.345 23.276C182.806 23.1781 182.407 22.693 182.407 22.1198V20.4736C181.456 20.1209 180.584 19.5918 179.834 18.9206L178.47 19.7387C178.001 20.0229 177.396 19.9151 177.049 19.4791C176.29 18.5286 175.488 17.441 175.071 16.2602C174.883 15.7262 175.09 15.1236 175.563 14.8345L177.124 14.0114C176.941 12.9875 176.941 11.9341 177.124 10.9053L175.563 10.0773C175.09 9.79313 174.879 9.19051 175.071 8.65649C175.488 7.47085 176.29 6.3832 177.049 5.43274C177.396 4.9967 177.996 4.88891 178.47 5.17307L179.834 5.99616C180.584 5.32495 181.456 4.79093 182.407 4.44307V2.792C182.407 2.22858 182.792 1.73865 183.326 1.64066C184.479 1.43489 185.694 1.42509 186.889 1.63577C187.428 1.73375 187.827 2.21878 187.827 2.792V4.43817C188.778 4.79093 189.65 5.32005 190.4 5.99126L191.764 5.16817C192.233 4.88401 192.838 4.9918 193.185 5.42784C193.944 6.3783 194.741 7.46595 195.158 8.65159C195.346 9.18561 195.163 9.78823 194.69 10.0773L193.11 10.9004C193.293 11.9292 193.293 12.9826 193.11 14.0114ZM187.597 15.0452C190.372 11.2727 186.251 6.96622 182.642 9.86662C179.867 13.6391 183.987 17.9456 187.597 15.0452ZM199.007 23.9962L198.623 24.6968C198.482 24.9565 198.182 25.0643 197.915 24.9614C197.362 24.7458 196.855 24.4372 196.41 24.0501C196.194 23.864 196.138 23.5357 196.279 23.2809L196.663 22.5803C196.34 22.1884 196.087 21.7328 195.918 21.2379H195.144C194.863 21.2379 194.619 21.0273 194.572 20.7333C194.479 20.1454 194.474 19.5281 194.572 18.9157C194.619 18.6217 194.863 18.4061 195.144 18.4061H195.918C196.087 17.9113 196.34 17.4557 196.663 17.0637L196.279 16.3631C196.138 16.1083 196.19 15.7801 196.41 15.5939C196.855 15.2069 197.366 14.8982 197.915 14.6826C198.182 14.5798 198.482 14.6875 198.623 14.9472L199.007 15.6478C199.499 15.5547 200.001 15.5547 200.493 15.6478L200.878 14.9472C201.018 14.6875 201.318 14.5798 201.586 14.6826C202.139 14.8982 202.645 15.2069 203.09 15.5939C203.306 15.7801 203.362 16.1083 203.222 16.3631L202.837 17.0637C203.161 17.4557 203.414 17.9113 203.583 18.4061H204.356C204.637 18.4061 204.881 18.6168 204.928 18.9108C205.022 19.4987 205.026 20.116 204.928 20.7284C204.881 21.0224 204.637 21.2379 204.356 21.2379H203.583C203.414 21.7328 203.161 22.1884 202.837 22.5803L203.222 23.2809C203.362 23.5357 203.311 23.864 203.09 24.0501C202.645 24.4372 202.134 24.7458 201.586 24.9614C201.318 25.0643 201.018 24.9565 200.878 24.6968L200.493 23.9962C200.006 24.0893 199.499 24.0893 199.007 23.9962ZM198.515 21.1105C200.32 22.5607 202.378 20.4099 200.99 18.5237C199.185 17.0735 197.127 19.2243 198.515 21.1105Z" fill="#232323"/>
</svg>
