<svg width="12" height="15" viewBox="0 0 12 15" fill="none" xmlns="http://www.w3.org/2000/svg">
<path d="M0.857143 13.5938C0.857143 13.9667 0.992602 14.3244 1.23372 14.5881C1.47484 14.8518 1.80186 15 2.14286 15H9.85714C10.1981 15 10.5252 14.8518 10.7663 14.5881C11.0074 14.3244 11.1429 13.9667 11.1429 13.5938V3.75H0.857143V13.5938ZM8.14286 6.09375C8.14286 5.96943 8.18801 5.8502 8.26838 5.7623C8.34876 5.67439 8.45776 5.625 8.57143 5.625C8.68509 5.625 8.7941 5.67439 8.87447 5.7623C8.95485 5.8502 9 5.96943 9 6.09375V12.6563C9 12.7806 8.95485 12.8998 8.87447 12.9877C8.7941 13.0756 8.68509 13.125 8.57143 13.125C8.45776 13.125 8.34876 13.0756 8.26838 12.9877C8.18801 12.8998 8.14286 12.7806 8.14286 12.6563V6.09375ZM5.57143 6.09375C5.57143 5.96943 5.61658 5.8502 5.69695 5.7623C5.77733 5.67439 5.88634 5.625 6 5.625C6.11366 5.625 6.22267 5.67439 6.30305 5.7623C6.38342 5.8502 6.42857 5.96943 6.42857 6.09375V12.6563C6.42857 12.7806 6.38342 12.8998 6.30305 12.9877C6.22267 13.0756 6.11366 13.125 6 13.125C5.88634 13.125 5.77733 13.0756 5.69695 12.9877C5.61658 12.8998 5.57143 12.7806 5.57143 12.6563V6.09375ZM3 6.09375C3 5.96943 3.04515 5.8502 3.12553 5.7623C3.2059 5.67439 3.31491 5.625 3.42857 5.625C3.54224 5.625 3.65124 5.67439 3.73162 5.7623C3.81199 5.8502 3.85714 5.96943 3.85714 6.09375V12.6563C3.85714 12.7806 3.81199 12.8998 3.73162 12.9877C3.65124 13.0756 3.54224 13.125 3.42857 13.125C3.31491 13.125 3.2059 13.0756 3.12553 12.9877C3.04515 12.8998 3 12.7806 3 12.6563V6.09375ZM11.5714 0.937505H8.35714L8.10536 0.389653C8.05202 0.272529 7.96986 0.174006 7.86812 0.105169C7.76638 0.0363316 7.6491 -8.87099e-05 7.52946 5.13654e-06H4.46786C4.34849 -0.000496734 4.23142 0.0357877 4.13004 0.104701C4.02866 0.173615 3.94708 0.272371 3.89464 0.389653L3.64286 0.937505H0.428571C0.314907 0.937505 0.205898 0.986891 0.125526 1.0748C0.0451529 1.16271 0 1.28193 0 1.40625L0 2.34375C0 2.46807 0.0451529 2.5873 0.125526 2.67521C0.205898 2.76312 0.314907 2.8125 0.428571 2.8125H11.5714C11.6851 2.8125 11.7941 2.76312 11.8745 2.67521C11.9548 2.5873 12 2.46807 12 2.34375V1.40625C12 1.28193 11.9548 1.16271 11.8745 1.0748C11.7941 0.986891 11.6851 0.937505 11.5714 0.937505V0.937505Z" fill="black"/>
</svg>
