<svg width="56" height="42" viewBox="0 0 56 42" fill="none" xmlns="http://www.w3.org/2000/svg">
<path d="M54.6 28.875H53.2V20.0074C53.2 18.9656 52.7538 17.9648 51.9663 17.2266L43.225 9.03164C42.4375 8.29336 41.37 7.875 40.2588 7.875H36.4V3.9375C36.4 1.76367 34.5188 0 32.2 0H4.2C1.88125 0 0 1.76367 0 3.9375V30.1875C0 32.3613 1.88125 34.125 4.2 34.125H5.6C5.6 38.4727 9.3625 42 14 42C18.6375 42 22.4 38.4727 22.4 34.125H33.6C33.6 38.4727 37.3625 42 42 42C46.6375 42 50.4 38.4727 50.4 34.125H54.6C55.37 34.125 56 33.5344 56 32.8125V30.1875C56 29.4656 55.37 28.875 54.6 28.875ZM14 38.0625C11.6813 38.0625 9.8 36.2988 9.8 34.125C9.8 31.9512 11.6813 30.1875 14 30.1875C16.3187 30.1875 18.2 31.9512 18.2 34.125C18.2 36.2988 16.3187 38.0625 14 38.0625ZM42 38.0625C39.6813 38.0625 37.8 36.2988 37.8 34.125C37.8 31.9512 39.6813 30.1875 42 30.1875C44.3187 30.1875 46.2 31.9512 46.2 34.125C46.2 36.2988 44.3187 38.0625 42 38.0625ZM49 21H36.4V11.8125H40.2588L49 20.0074V21Z" fill="#1890E7"/>
</svg>
